<svg width="16" height="17" viewBox="0 0 16 17" fill="none" xmlns="http://www.w3.org/2000/svg">
<path fill-rule="evenodd" clip-rule="evenodd" d="M3 3C2.86739 3 2.74021 3.05268 2.64645 3.14645C2.55268 3.24021 2.5 3.36739 2.5 3.5V13.5C2.5 13.6326 2.55268 13.7598 2.64645 13.8536C2.74021 13.9473 2.86739 14 3 14H8.25C8.44891 14 8.63968 14.079 8.78033 14.2197C8.92098 14.3603 9 14.5511 9 14.75C9 14.9489 8.92098 15.1397 8.78033 15.2803C8.63968 15.421 8.44891 15.5 8.25 15.5H3C2.46957 15.5 1.96086 15.2893 1.58579 14.9142C1.21071 14.5391 1 14.0304 1 13.5V3.5C1 2.96957 1.21071 2.46086 1.58579 2.08579C1.96086 1.71071 2.46957 1.5 3 1.5H13C13.5304 1.5 14.0391 1.71071 14.4142 2.08579C14.7893 2.46086 15 2.96957 15 3.5V9.75C15 9.94891 14.921 10.1397 14.7803 10.2803C14.6397 10.421 14.4489 10.5 14.25 10.5C14.0511 10.5 13.8603 10.421 13.7197 10.2803C13.579 10.1397 13.5 9.94891 13.5 9.75V3.5C13.5 3.36739 13.4473 3.24021 13.3536 3.14645C13.2598 3.05268 13.1326 3 13 3H3ZM15.28 11.72C15.4205 11.8606 15.4993 12.0512 15.4993 12.25C15.4993 12.4488 15.4205 12.6394 15.28 12.78L12.78 15.28C12.6394 15.4205 12.4488 15.4993 12.25 15.4993C12.0512 15.4993 11.8606 15.4205 11.72 15.28L10.72 14.28C10.6463 14.2113 10.5872 14.1285 10.5462 14.0365C10.5052 13.9445 10.4832 13.8452 10.4814 13.7445C10.4796 13.6438 10.4982 13.5438 10.5359 13.4504C10.5736 13.357 10.6297 13.2722 10.701 13.201C10.7722 13.1297 10.857 13.0736 10.9504 13.0359C11.0438 12.9982 11.1438 12.9796 11.2445 12.9814C11.3452 12.9832 11.4445 13.0052 11.5365 13.0462C11.6285 13.0872 11.7113 13.1463 11.78 13.22L12.25 13.69L14.22 11.72C14.3606 11.5795 14.5512 11.5007 14.75 11.5007C14.9488 11.5007 15.1394 11.5795 15.28 11.72ZM4.75 4.5C4.55109 4.5 4.36032 4.57902 4.21967 4.71967C4.07902 4.86032 4 5.05109 4 5.25C4 5.44891 4.07902 5.63968 4.21967 5.78033C4.36032 5.92098 4.55109 6 4.75 6H11.25C11.4489 6 11.6397 5.92098 11.7803 5.78033C11.921 5.63968 12 5.44891 12 5.25C12 5.05109 11.921 4.86032 11.7803 4.71967C11.6397 4.57902 11.4489 4.5 11.25 4.5H4.75ZM4 8.5C4 8.30109 4.07902 8.11032 4.21967 7.96967C4.36032 7.82902 4.55109 7.75 4.75 7.75H11.25C11.4489 7.75 11.6397 7.82902 11.7803 7.96967C11.921 8.11032 12 8.30109 12 8.5C12 8.69891 11.921 8.88968 11.7803 9.03033C11.6397 9.17098 11.4489 9.25 11.25 9.25H4.75C4.55109 9.25 4.36032 9.17098 4.21967 9.03033C4.07902 8.88968 4 8.69891 4 8.5ZM4.75 11C4.55109 11 4.36032 11.079 4.21967 11.2197C4.07902 11.3603 4 11.5511 4 11.75C4 11.9489 4.07902 12.1397 4.21967 12.2803C4.36032 12.421 4.55109 12.5 4.75 12.5H8.25C8.44891 12.5 8.63968 12.421 8.78033 12.2803C8.92098 12.1397 9 11.9489 9 11.75C9 11.5511 8.92098 11.3603 8.78033 11.2197C8.63968 11.079 8.44891 11 8.25 11H4.75Z" fill="white"/>
</svg>
