<svg width="20" height="21" viewBox="0 0 20 21" fill="none" xmlns="http://www.w3.org/2000/svg">
<g clip-path="url(#clip0_0_457)">
<path d="M6.56667 5.08335C7.71726 5.08335 8.65 4.15061 8.65 3.00002C8.65 1.84943 7.71726 0.916687 6.56667 0.916687C5.41608 0.916687 4.48334 1.84943 4.48334 3.00002C4.48334 4.15061 5.41608 5.08335 6.56667 5.08335Z" fill="white"/>
<path d="M16.5667 14.25C17.4871 14.25 18.2333 13.5038 18.2333 12.5834C18.2333 11.6629 17.4871 10.9167 16.5667 10.9167C15.6462 10.9167 14.9 11.6629 14.9 12.5834C14.9 13.5038 15.6462 14.25 16.5667 14.25Z" fill="white"/>
<path d="M11.9167 9.21668L13.9917 8.27502C14.6711 8.24497 15.3346 8.05959 15.9313 7.7331C16.5279 7.40662 17.0417 6.94773 17.4333 6.39168C18.8083 4.55835 18.7417 2.16668 17.2667 1.05835C15.7917 -0.0499827 13.5083 0.516684 12.1 2.39168C11.6762 2.91885 11.3803 3.53711 11.2357 4.1979C11.0911 4.85869 11.1017 5.54401 11.2667 6.20002L10.9333 8.48335L10.2083 9.42502L8.38334 9.01668C8.15251 8.96696 7.94114 8.85114 7.77501 8.68335L5.36667 6.28335C5.21435 6.12629 5.0225 6.0132 4.81132 5.95601C4.60013 5.89881 4.37744 5.89962 4.16667 5.95835C3.95922 6.00947 3.76833 6.11291 3.61222 6.2588C3.45612 6.40469 3.34002 6.58815 3.27501 6.79168L1.60834 12.625C1.56374 12.7846 1.55109 12.9514 1.57111 13.1158C1.59113 13.2803 1.64343 13.4392 1.72501 13.5834L2.78334 15.5C2.87789 15.6676 2.93303 15.8545 2.94459 16.0465C2.95614 16.2385 2.92379 16.4307 2.85001 16.6084L1.88334 18.7584C1.79743 18.9111 1.74461 19.0802 1.72831 19.2548C1.71201 19.4293 1.73258 19.6052 1.7887 19.7713C1.84482 19.9373 1.93523 20.0897 2.05407 20.2185C2.1729 20.3474 2.31749 20.4498 2.47847 20.5191C2.63944 20.5884 2.8132 20.6231 2.98845 20.6209C3.1637 20.6188 3.33654 20.5797 3.49574 20.5064C3.65494 20.4331 3.79694 20.3272 3.91253 20.1954C4.02811 20.0637 4.1147 19.9091 4.16667 19.7417L5.13334 17.55C5.4759 16.7609 5.53479 15.8776 5.30001 15.05L6.27501 15.35C6.50222 15.4281 6.70189 15.5705 6.8498 15.7598C6.99772 15.9491 7.08753 16.1773 7.10834 16.4167L7.35834 19.35C7.39149 19.6815 7.55498 19.9863 7.81284 20.1973C8.07071 20.4083 8.40182 20.5082 8.73334 20.475C9.06486 20.4419 9.36963 20.2784 9.58061 20.0205C9.79159 19.7627 9.89149 19.4315 9.85834 19.1L9.60001 16.1667C9.52385 15.4449 9.23893 14.7609 8.78011 14.1985C8.3213 13.6361 7.70849 13.2196 7.01667 13L4.51667 12.2417C4.46517 12.2245 4.4224 12.1879 4.3975 12.1396C4.3726 12.0914 4.36751 12.0353 4.38334 11.9834L5.00001 9.89168C5.00977 9.85667 5.0289 9.82498 5.05533 9.80002C5.08176 9.77505 5.11449 9.75777 5.15001 9.75002C5.18491 9.74181 5.22128 9.74207 5.25607 9.75076C5.29086 9.75946 5.32307 9.77635 5.35001 9.80002L6.00001 10.45C6.49902 10.9586 7.13658 11.3093 7.83334 11.4584L10.875 12.1334C11.1933 12.2207 11.5332 12.1779 11.8199 12.0146C12.1067 11.8513 12.3169 11.5808 12.4042 11.2625C12.4915 10.9443 12.4488 10.6044 12.2855 10.3176C12.1221 10.0308 11.8516 9.82065 11.5333 9.73335L11.9167 9.21668ZM16.275 2.39168C17 2.93335 16.925 4.30835 16.1083 5.39168C15.2917 6.47502 13.9917 6.93335 13.275 6.39168C12.5583 5.85002 12.6333 4.46668 13.4417 3.39168C14.25 2.31668 15.525 1.83335 16.275 2.39168Z" fill="white"/>
</g>
<defs>
<clipPath id="clip0_0_457">
<rect width="20" height="20" fill="white" transform="translate(0 0.5)"/>
</clipPath>
</defs>
</svg>
