<svg width="26" height="24" viewBox="0 0 26 24" fill="none" xmlns="http://www.w3.org/2000/svg">
<path d="M2.21591 4C1.61342 4 1.125 4.48842 1.125 5.09091V17.9794C1.125 18.5819 1.61342 19.0703 2.21591 19.0703H24.0341C24.6366 19.0703 25.125 18.5819 25.125 17.9794V5.09091C25.125 4.48842 24.6366 4 24.0341 4H2.21591ZM13.4962 8.74452C15.027 8.91182 16.2178 10.0991 16.2178 11.5352C16.2178 12.9712 15.027 14.1585 13.4962 14.3258V8.74452ZM1.86727 9.17338H4.58892V13.8969H1.86727V9.17338ZM12.7538 14.3258C11.223 14.1585 10.0322 12.9712 10.0322 11.5352C10.0322 10.0991 11.223 8.91182 12.7538 8.74452V14.3258ZM12.7538 8.06534C10.8127 8.23562 9.28992 9.72659 9.28992 11.5352C9.28992 13.3437 10.8127 14.8346 12.7538 15.005V18.3955H2.95818C2.35568 18.3955 1.86727 17.9071 1.86727 17.3046V14.5717H5.33119V13.6451C6.4515 13.4828 7.31058 12.5986 7.31058 11.5352C7.31058 10.4717 6.45155 9.5875 5.33119 9.42523V8.49859H1.86727V5.7657C1.86727 5.1632 2.35568 4.67479 2.95817 4.67479H12.7538V8.06534ZM5.33119 12.9575V10.1128C6.03956 10.2656 6.56831 10.8451 6.56831 11.5352C6.56831 12.2252 6.03956 12.8047 5.33119 12.9575ZM24.3827 13.8969H21.6611V9.17338H24.3827V13.8969ZM24.3827 8.49859H20.9188V9.42523C19.7985 9.5875 18.9394 10.4717 18.9394 11.5352C18.9394 12.5986 19.7985 13.4828 20.9188 13.6451V14.5717H24.3827V17.3046C24.3827 17.9071 23.8943 18.3955 23.2918 18.3955H13.4962V15.005C15.4373 14.8347 16.9601 13.3437 16.9601 11.5352C16.9601 9.72659 15.4373 8.23567 13.4962 8.06534V4.67479H23.2918C23.8943 4.67479 24.3827 5.1632 24.3827 5.7657V8.49859ZM20.9188 10.1128V12.9575C20.2104 12.8047 19.6817 12.2252 19.6817 11.5352C19.6817 10.8451 20.2104 10.2656 20.9188 10.1128Z" fill="#9695B0" stroke="#9695B0" stroke-width="0.654545"/>
</svg>
