<svg width="25" height="24" viewBox="0 0 25 24" fill="none" xmlns="http://www.w3.org/2000/svg">
<path d="M19.2389 14.636C18.2587 13.6558 17.0919 12.9301 15.8189 12.4909C17.1823 11.5518 18.0781 9.9802 18.0781 8.20312C18.0781 5.33413 15.7439 3 12.8749 3C10.0059 3 7.67181 5.33413 7.67181 8.20312C7.67181 9.9802 8.56756 11.5518 9.93102 12.4909C8.65802 12.9301 7.49125 13.6558 6.51099 14.636C4.97777 16.1693 4.06584 18.1583 3.90177 20.2975C3.87207 20.6847 4.18974 21 4.57806 21C4.96639 21 5.27777 20.6842 5.31341 20.2975C5.66903 16.4383 8.92455 13.4062 12.8749 13.4062C16.8253 13.4062 20.0809 16.4383 20.4365 20.2975C20.4721 20.6842 20.7835 21 21.1718 21C21.5601 21 21.8778 20.6847 21.8481 20.2975C21.684 18.1583 20.7721 16.1693 19.2389 14.636ZM12.8749 12C10.7813 12 9.07806 10.2968 9.07806 8.20312C9.07806 6.1095 10.7813 4.40625 12.8749 4.40625C14.9685 4.40625 16.6718 6.1095 16.6718 8.20312C16.6718 10.2968 14.9685 12 12.8749 12Z" fill="#9695B0"/>
</svg>
