<svg width="25" height="24" viewBox="0 0 25 24" fill="none" xmlns="http://www.w3.org/2000/svg">
<path fill-rule="evenodd" clip-rule="evenodd" d="M2.875 12C2.875 6.756 7.131 2.5 12.375 2.5C17.619 2.5 21.875 6.756 21.875 12C21.875 17.244 17.619 21.5 12.375 21.5C7.131 21.5 2.875 17.244 2.875 12ZM4.45834 11.9999C4.45834 16.364 8.01095 19.9166 12.375 19.9166C16.7391 19.9166 20.2917 16.364 20.2917 11.9999C20.2917 7.63586 16.7391 4.08325 12.375 4.08325C8.01095 4.08325 4.45834 7.63586 4.45834 11.9999ZM7.875 16.5L14.0195 13.6445L16.875 7.5L10.7305 10.3555L7.875 16.5ZM13.5 12C13.5 11.3761 12.9989 10.875 12.375 10.875C11.7511 10.875 11.25 11.3761 11.25 12C11.25 12.6239 11.7511 13.125 12.375 13.125C12.9989 13.125 13.5 12.6239 13.5 12Z" fill="#30D8D4"/>
</svg>
