<svg width="25" height="24" viewBox="0 0 25 24" fill="none" xmlns="http://www.w3.org/2000/svg">
<path d="M12.5879 9.99609C12.9978 9.99609 13.3301 10.3283 13.3301 10.7383C13.3301 11.1482 12.9978 11.4805 12.5879 11.4805C12.1779 11.4805 11.8457 11.1482 11.8457 10.7383C11.8457 10.3283 12.1779 9.99609 12.5879 9.99609ZM15.1855 10.7383C15.1855 11.1482 15.5178 11.4805 15.9277 11.4805C16.3377 11.4805 16.6699 11.1482 16.6699 10.7383C16.6699 10.3283 16.3377 9.99609 15.9277 9.99609C15.5178 9.99609 15.1855 10.3283 15.1855 10.7383ZM8.50586 10.7383C8.50586 11.1482 8.8381 11.4805 9.24805 11.4805C9.65799 11.4805 9.99023 11.1482 9.99023 10.7383C9.99023 10.3283 9.65799 9.99609 9.24805 9.99609C8.8381 9.99609 8.50586 10.3283 8.50586 10.7383ZM21.4724 17.6986C22.341 18.5672 22.341 19.9797 21.4728 20.8478C21.0388 21.2818 20.4686 21.499 19.8984 21.499C19.3283 21.499 18.758 21.2818 18.324 20.8478L14.2498 16.7828C14.1633 16.6964 14.0995 16.5901 14.064 16.473L13.1766 13.5516C13.0979 13.2926 13.1664 13.0114 13.3554 12.8176C13.5445 12.6239 13.824 12.5485 14.0849 12.6207L17.0804 13.4505C17.2038 13.4847 17.3161 13.55 17.4067 13.6405L21.4724 17.6986ZM15.4301 15.8634L18.1795 18.6068L19.2293 17.557L16.4961 14.829L14.9891 14.4115L15.4301 15.8634ZM20.4232 18.7487L20.28 18.6056L19.2303 19.6553L19.3731 19.7976C19.663 20.0877 20.1339 20.0877 20.4232 19.7982C20.7127 19.5089 20.7127 19.038 20.4232 18.7487ZM13.0378 17.8801C12.9007 17.886 12.7618 17.8891 12.625 17.8891C11.4316 17.8891 10.2826 17.6669 9.21021 17.2287C9.02757 17.1541 8.82259 17.1553 8.64082 17.232L5.2614 18.6585L6.40005 15.9613C6.51138 15.6976 6.46107 15.3932 6.2706 15.1792C5.18385 13.9584 4.60938 12.4976 4.60938 10.9553C4.60938 7.11156 8.20522 3.98438 12.625 3.98438C17.0448 3.98438 20.6406 7.11156 20.6406 10.9553C20.6406 11.8668 20.4168 12.7819 19.9753 13.675C19.7936 14.0425 19.9442 14.4876 20.3117 14.6693C20.6792 14.8509 21.1244 14.7003 21.306 14.3328C21.8494 13.2333 22.125 12.097 22.125 10.9553C22.125 6.29298 17.8634 2.5 12.625 2.5C7.38678 2.5 3.125 6.29298 3.125 10.9553C3.125 12.7151 3.72165 14.3817 4.85566 15.803L3.18342 19.7641C3.066 20.0423 3.12891 20.364 3.34244 20.5775C3.4845 20.7195 3.67425 20.7949 3.86733 20.7949C3.9646 20.7949 4.06274 20.7758 4.1558 20.7365L8.9403 18.7168C10.1072 19.1527 11.3453 19.3735 12.625 19.3735C12.7833 19.3735 12.9441 19.3698 13.1028 19.363C13.5123 19.345 13.8298 18.9986 13.8118 18.5891C13.7939 18.1796 13.4468 17.8611 13.0378 17.8801Z" fill="#9695B0"/>
</svg>
